Coordinates
version=1
nRows=38
nColumns=38
inDegrees=no

Units are S.I. units (second, meters, Newtons, ...)
If the header above contains a line with 'inDegrees', this indicates whether rotational values are in degrees (yes) or radians (no).

endheader
time	pelvis_tilt	pelvis_list	pelvis_rotation	pelvis_tx	pelvis_ty	pelvis_tz	hip_flexion_r	hip_adduction_r	hip_rotation_r	knee_angle_r	ankle_angle_r	subtalar_angle_r	mtp_angle_r	hip_flexion_l	hip_adduction_l	hip_rotation_l	knee_angle_l	ankle_angle_l	subtalar_angle_l	mtp_angle_l	lumbar_extension	lumbar_bending	lumbar_rotation	arm_flex_r	arm_add_r	arm_rot_r	elbow_flex_r	pro_sup_r	wrist_flex_r	wrist_dev_r	arm_flex_l	arm_add_l	arm_rot_l	elbow_flex_l	pro_sup_l	wrist_flex_l	wrist_dev_l
0.025	-0.0635276	-0.0604695	0.0816265	1.15513	0.983539	-0.30837	0.90448	-0.127433	-0.257574	-1.98924	0.245691	-0.01045	0	0.0420654	-0.0590396	-0.199135	-0.604614	0.525389	0.698841	0	-0.191145	0.00175764	-0.209528	-0.72433	-0.104383	-0.375685	1.13648	1.13166	0	0	-0.147399	-0.354278	0.000507951	2.30911	1.50145	0	0
0.033333	-0.0824089	-0.0879789	0.0547676	1.15741	0.987495	-0.307819	0.940853	-0.0890212	-0.265658	-1.8863	0.242333	0.000553931	0	-0.009504	-0.0868758	-0.249829	-0.546042	0.426422	0.687803	0	-0.160844	0.0374978	-0.206419	-0.746594	-0.107054	-0.402313	1.15535	1.12453	0	0	-0.132092	-0.339628	0.00913726	2.36383	1.51667	0	0
0.041667	-0.101168	-0.111521	0.0276848	1.15976	0.991971	-0.307037	0.970438	-0.0520697	-0.2719	-1.77735	0.23934	0.0202145	0	-0.056608	-0.109096	-0.295023	-0.493181	0.325981	0.673034	0	-0.131819	0.0698178	-0.202709	-0.768914	-0.111545	-0.424408	1.17521	1.11926	0	0	-0.120381	-0.326661	0.019496	2.41688	1.5319	0	0
0.05	-0.119754	-0.131026	0.000497359	1.16214	0.996712	-0.306084	0.993238	-0.0167229	-0.276346	-1.66247	0.236694	0.0484495	0	-0.0991995	-0.125655	-0.334432	-0.446249	0.224511	0.654732	0	-0.10412	0.0986207	-0.19847	-0.791247	-0.117778	-0.442036	1.19605	1.11579	0	0	-0.112213	-0.315399	0.0315711	2.46817	1.54711	0	0
0.058333	-0.137991	-0.146318	-0.0264281	1.1645	1.00147	-0.305025	1.00924	0.0166028	-0.279187	-1.54193	0.234342	0.0849375	0	-0.137159	-0.136459	-0.367241	-0.405903	0.123397	0.633536	0	-0.0779147	0.123645	-0.193911	-0.813456	-0.1255	-0.455409	1.21773	1.11404	0	0	-0.107419	-0.305905	0.0453123	2.51737	1.56225	0	0
0.066667	-0.155527	-0.157144	-0.0524156	1.16674	1.00604	-0.30394	1.01841	0.0471721	-0.280889	-1.41634	0.232203	0.129028	0	-0.170317	-0.141423	-0.392046	-0.373316	0.0251281	0.610559	0	-0.0535297	0.144465	-0.189395	-0.835273	-0.134218	-0.464943	1.24	1.11389	0	0	-0.105697	-0.298286	0.060592	2.56384	1.57726	0	0
0.075	-0.17183	-0.163262	-0.0765224	1.16879	1.01024	-0.302927	1.02073	0.0740224	-0.282272	-1.28672	0.230096	0.179601	0	-0.198491	-0.140567	-0.407125	-0.350108	-0.0669507	0.587323	0	-0.0314455	0.160577	-0.185403	-0.85629	-0.143205	-0.471241	1.26245	1.11527	0	0	-0.106653	-0.292668	0.0771649	2.60655	1.59197	0	0
0.083333	-0.186251	-0.164551	-0.09768	1.1706	1.01394	-0.302092	1.01624	0.0961559	-0.284482	-1.15455	0.227651	0.234981	0	-0.221515	-0.13413	-0.410959	-0.338166	-0.149297	0.565563	0	-0.0122345	0.171519	-0.182439	-0.875981	-0.151566	-0.475026	1.28451	1.11812	0	0	-0.109889	-0.289164	0.0946434	2.64418	1.6061	0	0
0.091667	-0.198126	-0.161109	-0.114891	1.17213	1.01708	-0.301537	1.00514	0.112779	-0.288847	-1.02183	0.224219	0.292907	0	-0.239248	-0.122645	-0.402803	-0.339406	-0.218942	0.546875	0	0.00353645	0.177028	-0.180911	-0.893763	-0.158358	-0.477044	1.30551	1.1223	0	0	-0.115094	-0.287816	0.112497	2.67524	1.61916	0	0
0.1	-0.206903	-0.153319	-0.127427	1.17339	1.01961	-0.301338	0.987871	0.123499	-0.296651	-0.890957	0.218887	0.350653	0	-0.25158	-0.10697	-0.383147	-0.355509	-0.274164	0.532358	0	0.0154086	0.177164	-0.181028	-0.909069	-0.162744	-0.477951	1.32479	1.12747	0	0	-0.122105	-0.288546	0.130075	2.69826	1.63035	0	0
0.108333	-0.212232	-0.141865	-0.134977	1.17438	1.02154	-0.301533	0.965155	0.128417	-0.308921	-0.764698	0.210648	0.405386	0	-0.258452	-0.0882452	-0.353755	-0.387666	-0.314794	0.5221	0	0.0231038	0.1724	-0.18273	-0.921427	-0.164137	-0.478224	1.34177	1.13302	0	0	-0.130929	-0.291112	0.146659	2.71199	1.63861	0	0
0.116667	-0.214003	-0.127706	-0.137712	1.17513	1.0229	-0.302114	0.93793	0.128125	-0.326197	-0.645963	0.198606	0.454478	0	-0.25991	-0.0678287	-0.317502	-0.436375	-0.342118	0.515023	0	0.0265415	0.163639	-0.185665	-0.930516	-0.162307	-0.478111	1.35609	1.13801	0	0	-0.141705	-0.295099	0.161515	2.71561	1.6428	0	0
0.125	-0.212311	-0.112014	-0.136267	1.17567	1.02375	-0.303023	0.907253	0.123643	-0.348331	-0.537606	0.182178	0.495722	0	-0.256202	-0.0472265	-0.278041	-0.501318	-0.358482	0.509096	0	0.0257991	0.152154	-0.189215	-0.936183	-0.157431	-0.477619	1.36761	1.14141	0	0	-0.154634	-0.299943	0.173964	2.70882	1.64192	0	0
0.133333	-0.207379	-0.0960712	-0.131654	1.17604	1.02414	-0.304157	0.874155	0.116292	-0.374319	-0.442191	0.161269	0.527434	0	-0.247871	-0.0279961	-0.239343	-0.581327	-0.366729	0.501808	0	0.0210418	0.139452	-0.192563	-0.93844	-0.150068	-0.476539	1.37645	1.14231	0	0	-0.169902	-0.305	0.183427	2.69186	1.63551	0	0
0.141667	-0.199475	-0.0811405	-0.125123	1.17624	1.02412	-0.305391	0.839538	0.107531	-0.402257	-0.361825	0.136401	0.548509	0	-0.235806	-0.0116092	-0.205126	-0.674442	-0.369606	0.490645	0	0.012465	0.127077	-0.194786	-0.937417	-0.141089	-0.474518	1.3829	1.14018	0	0	-0.187615	-0.309615	0.189474	2.66543	1.6239	0	0
0.15	-0.188863	-0.0683243	-0.118013	1.17629	1.02371	-0.306598	0.804129	0.0987694	-0.4295	-0.298073	0.108721	0.558577	0	-0.22118	0.000702119	-0.178326	-0.778105	-0.36925	0.473545	0	0.000278028	0.116417	-0.194963	-0.933312	-0.131551	-0.471138	1.38736	1.13514	0	0	-0.207754	-0.3132	0.191861	2.63058	1.60843	0	0
0.158333	-0.175809	-0.0584489	-0.111592	1.17621	1.0229	-0.307674	0.768507	0.0911824	-0.453052	-0.251934	0.079926	0.558217	0	-0.205282	0.00807246	-0.160767	-0.889457	-0.366849	0.449286	0	-0.0152653	0.108533	-0.192274	-0.926345	-0.122562	-0.466011	1.39021	1.12798	0	0	-0.230158	-0.315282	0.19058	2.58843	1.5913	0	0
0.166667	-0.160611	-0.0519883	-0.106918	1.17601	1.02163	-0.308547	0.733158	0.0855784	-0.470137	-0.223836	0.0520908	0.54915	0	-0.189286	0.0100739	-0.153044	-1.00567	-0.362539	0.417737	0	-0.0338138	0.104063	-0.186099	-0.916704	-0.115145	-0.458842	1.3918	1.12007	0	0	-0.25453	-0.315534	0.185884	2.54008	1.57519	0	0
0.175	-0.143655	-0.0490368	-0.104719	1.17572	1.01989	-0.309179	0.698484	0.0824042	-0.478426	-0.213522	0.027538	0.533687	0	-0.174022	0.00672623	-0.1546	-1.12423	-0.35557	0.379875	0	-0.0548726	0.103193	-0.176089	-0.904516	-0.110128	-0.449451	1.39234	1.11306	0	0	-0.28045	-0.313795	0.178279	2.4864	1.56274	0	0
0.183333	-0.125445	-0.0493339	-0.105315	1.17535	1.01761	-0.309561	0.664823	0.0817932	-0.476317	-0.220005	0.0087603	0.514197	0	-0.159797	-0.00156726	-0.163936	-1.24312	-0.344695	0.337633	0	-0.0777857	0.105683	-0.162223	-0.889809	-0.10806	-0.437745	1.39195	1.1085	0	0	-0.307404	-0.310082	0.168456	2.42801	1.55601	0	0
0.191667	-0.106608	-0.0523323	-0.108586	1.17491	1.01476	-0.309709	0.632508	0.0836073	-0.463265	-0.241732	-0.00155848	0.492818	0	-0.146292	-0.0141335	-0.178908	-1.36093	-0.328647	0.293665	0	-0.101751	0.110954	-0.14482	-0.872503	-0.109182	-0.423674	1.39065	1.10757	0	0	-0.334819	-0.304588	0.157183	2.36531	1.55616	0	0
0.2	-0.0878835	-0.0572929	-0.114018	1.17441	1.0113	-0.309662	0.601964	0.0874716	-0.439971	-0.276906	-0.000553477	0.471305	0	-0.132538	-0.0301393	-0.197021	-1.47675	-0.306574	0.250947	0	-0.125861	0.118198	-0.124497	-0.852412	-0.113431	-0.407185	1.38842	1.11078	0	0	-0.362097	-0.297674	0.145193	2.29854	1.56331	0	0
0.208333	-0.0700789	-0.0633968	-0.1208	1.17381	1.00717	-0.309473	0.573761	0.092823	-0.4084	-0.323759	0.0145896	0.451065	0	-0.116991	-0.048682	-0.215678	-1.59011	-0.278309	0.212296	0	-0.149155	0.126505	-0.102076	-0.829275	-0.120487	-0.388209	1.38526	1.11792	0	0	-0.388654	-0.289827	0.133098	2.22791	1.57657	0	0
0.216667	-0.0540162	-0.0698585	-0.127981	1.17303	1.00235	-0.309201	0.548542	0.0990391	-0.371327	-0.380517	0.0460559	0.432908	0	-0.0976915	-0.0688674	-0.232432	-1.70071	-0.244403	0.179952	0	-0.170694	0.134995	-0.0784552	-0.802802	-0.129836	-0.366697	1.38125	1.12816	0	0	-0.413964	-0.28161	0.121353	2.15379	1.59412	0	0
0.225	-0.040449	-0.0760257	-0.134623	1.17198	0.996855	-0.308907	0.526808	0.105549	-0.331884	-0.445175	0.0946242	0.417107	0	-0.0725153	-0.0898782	-0.245211	-1.8082	-0.205956	0.15533	0	-0.189648	0.142918	-0.0544654	-0.772742	-0.140844	-0.342697	1.37665	1.14032	0	0	-0.4376	-0.273596	0.110234	2.07678	1.61347	0	0
0.233333	-0.0299688	-0.0814408	-0.139946	1.17053	0.990826	-0.308646	0.508656	0.111889	-0.293144	-0.515207	0.159028	0.403652	0	-0.0394803	-0.111013	-0.252511	-1.91196	-0.164324	0.138903	0	-0.205388	0.149726	-0.0307614	-0.738974	-0.15282	-0.316451	1.37193	1.15323	0	0	-0.459305	-0.266298	0.0998408	1.99787	1.63189	0	0
0.241667	-0.0229217	-0.0858459	-0.143435	1.16859	0.984479	-0.308457	0.493549	0.117696	-0.257741	-0.587387	0.235778	0.392521	0	0.00293249	-0.131682	-0.25354	-2.01094	-0.120849	0.13021	0	-0.217555	0.155069	-0.00774283	-0.701601	-0.165074	-0.288494	1.36788	1.16597	0	0	-0.479053	-0.260115	0.0900828	1.9185	1.64684	0	0
0.25	-0.0193637	-0.089122	-0.144904	1.16616	0.978092	-0.30835	0.480237	0.122662	-0.227447	-0.657865	0.319615	0.383684	0	0.0555187	-0.151346	-0.248302	-2.1036	-0.0766762	0.128002	0	-0.226074	0.158743	0.0144709	-0.661034	-0.176956	-0.25971	1.36561	1.17806	0	0	-0.497115	-0.255288	0.0806776	1.84053	1.65658	0	0
0.258333	-0.0190689	-0.0911785	-0.144506	1.16331	0.971986	-0.308308	0.466904	0.126437	-0.202994	-0.722535	0.404453	0.377169	0	0.118197	-0.169435	-0.237588	-2.18796	-0.0327214	0.130455	0	-0.231106	0.160584	0.0360047	-0.618049	-0.187874	-0.231333	1.36657	1.18949	0	0	-0.514083	-0.251901	0.0711677	1.76621	1.66045	0	0
0.266667	-0.0215959	-0.0918385	-0.142665	1.16016	0.966459	-0.308292	0.45149	0.12853	-0.184156	-0.777617	0.484492	0.373134	0	0.189999	-0.185266	-0.222869	-2.26177	0.0102459	0.135463	0	-0.232942	0.160358	0.057134	-0.573785	-0.197318	-0.204845	1.37238	1.20077	0	0	-0.530844	-0.24991	0.0609705	1.698	1.6589	0	0
0.275	-0.0263917	-0.0907711	-0.139951	1.15684	0.961755	-0.308262	0.432095	0.128258	-0.1701	-0.82019	0.555083	0.371964	0	0.269195	-0.198044	-0.206075	-2.32274	0.0514872	0.140959	0	-0.231873	0.157712	0.0781537	-0.529673	-0.204874	-0.181777	1.38461	1.21281	0	0	-0.548485	-0.249194	0.049463	1.63839	1.65313	0	0
0.283333	-0.0329008	-0.0875124	-0.13692	1.15356	0.958053	-0.308197	0.407294	0.124801	-0.159805	-0.848486	0.612986	0.374173	0	0.353522	-0.206941	-0.189317	-2.36884	0.0902301	0.145277	0	-0.228093	0.15221	0.0992463	-0.487296	-0.210264	-0.163442	1.40457	1.22669	0	0	-0.568137	-0.249595	0.0360863	1.58964	1.64468	0	0
0.291667	-0.0406476	-0.081568	-0.133958	1.15055	0.955485	-0.308107	0.376318	0.117342	-0.152504	-0.861914	0.656224	0.380262	0	0.440453	-0.211256	-0.174572	-2.39856	0.12568	0.147415	0	-0.22166	0.143439	0.120385	-0.448209	-0.213386	-0.15067	1.43305	1.24337	0	0	-0.590799	-0.250952	0.020449	1.55348	1.63501	0	0
0.3	-0.0492707	-0.0725548	-0.131172	1.14801	0.954138	-0.308025	0.339053	0.105258	-0.147951	-0.860857	0.683644	0.390486	0	0.527453	-0.210555	-0.163405	-2.41105	0.157047	0.147096	0	-0.212538	0.131157	0.141295	-0.41375	-0.214344	-0.14362	1.47019	1.26328	0	0	-0.617168	-0.253102	0.00239881	1.53088	1.62529	0	0
0.308333	-0.0585205	-0.0603257	-0.128363	1.14613	0.954052	-0.307998	0.295934	0.0882888	-0.146515	-0.846384	0.694558	0.404726	0	0.612198	-0.204771	-0.156783	-2.40622	0.183613	0.144684	0	-0.200689	0.11539	0.161476	-0.384887	-0.213454	-0.14173	1.51543	1.28609	0	0	-0.647548	-0.255866	-0.017957	1.5219	1.6164	0	0
0.316667	-0.0682354	-0.0450321	-0.125082	1.145	0.955211	-0.30807	0.247796	0.0666466	-0.149026	-0.819982	0.688479	0.422341	0	0.692717	-0.194209	-0.155019	-2.38467	0.204772	0.140979	0	-0.186166	0.0964621	0.180281	-0.362126	-0.211199	-0.143813	1.56762	1.31062	0	0	-0.681834	-0.259038	-0.040289	1.52572	1.60888	0	0
0.325	-0.0783214	-0.0271106	-0.120752	1.14466	0.957544	-0.308286	0.195742	0.0410266	-0.156458	-0.783382	0.665035	0.442113	0	0.76749	-0.179479	-0.157851	-2.34756	0.220078	0.137012	0	-0.169173	0.0749389	0.197017	-0.345498	-0.208161	-0.148265	1.62515	1.33504	0	0	-0.719575	-0.262369	-0.0641272	1.54076	1.60303	0	0
0.333333	-0.0887435	-0.00721418	-0.114813	1.14509	0.960921	-0.308686	0.141071	0.0125164	-0.169562	-0.738532	0.62409	0.462328	0	0.835486	-0.161394	-0.164591	-2.29646	0.229299	0.133861	0	-0.150068	0.0515287	0.211053	-0.334614	-0.204929	-0.153332	1.68611	1.35724	0	0	-0.760078	-0.265561	-0.0889611	1.56493	1.59878	0	0
